<svg xmlns="http://www.w3.org/2000/svg" width="35" height="40.559" viewBox="0 0 35 40.559">
  <g id="Group_3481" data-name="Group 3481" transform="translate(-131 -999)">
    <path id="Path_89" data-name="Path 89" d="M124.871,70.879a4.816,4.816,0,1,0,4.816,4.816A4.822,4.822,0,0,0,124.871,70.879Zm0,6.787a1.971,1.971,0,1,1,1.971-1.971A1.973,1.973,0,0,1,124.871,77.666Z" transform="translate(23.628 938.569)" fill="#203b78"/>
    <path id="Path_90" data-name="Path 90" d="M65.6,12.991H62.88a14.154,14.154,0,0,0-.774-1.865l1.921-1.921a1.261,1.261,0,0,0,0-1.783L59.434,2.829a1.261,1.261,0,0,0-1.783,0L55.731,4.75a14.169,14.169,0,0,0-1.865-.774V1.261A1.261,1.261,0,0,0,52.6,0h-6.5a1.261,1.261,0,0,0-1.261,1.261V3.976a14.178,14.178,0,0,0-1.865.774L41.062,2.829a1.261,1.261,0,0,0-1.783,0L34.686,7.422a1.261,1.261,0,0,0,0,1.783l1.921,1.921a14.161,14.161,0,0,0-.774,1.865H33.118a1.261,1.261,0,0,0-1.261,1.261v6.5a1.261,1.261,0,0,0,1.261,1.261h2.716a14.161,14.161,0,0,0,.774,1.865l-1.921,1.921a1.261,1.261,0,0,0,0,1.783l4.593,4.593a1.261,1.261,0,0,0,1.783,0l1.112-1.112a1.255,1.255,0,0,0,.116.229L44.467,34.6v4.7a1.261,1.261,0,0,0,1.261,1.261h7.259A1.261,1.261,0,0,0,54.247,39.3V34.6l2.178-3.314a1.245,1.245,0,0,0,.115-.229l1.112,1.112a1.261,1.261,0,0,0,1.783,0l4.593-4.593a1.261,1.261,0,0,0,0-1.783l-1.921-1.921a14.178,14.178,0,0,0,.774-1.865H65.6a1.261,1.261,0,0,0,1.261-1.261v-6.5A1.261,1.261,0,0,0,65.6,12.991ZM54.111,30.219l-2.178,3.314a1.26,1.26,0,0,0-.207.692v3.813H46.988V34.225a1.261,1.261,0,0,0-.207-.692L44.6,30.219V24.112a1.707,1.707,0,0,1,1.156-1.617l.269-.083L48.414,25.1a1.261,1.261,0,0,0,1.886,0l2.385-2.689.269.083a1.707,1.707,0,0,1,1.156,1.617v6.106ZM53.74,20.1l-1.09-.335a1.26,1.26,0,0,0-1.313.369l-1.979,2.232-1.979-2.232a1.261,1.261,0,0,0-1.313-.369l-1.09.335a4.225,4.225,0,0,0-2.427,2.082,8.268,8.268,0,1,1,13.618,0A4.224,4.224,0,0,0,53.74,20.1Zm10.6-.612h-2.4a1.26,1.26,0,0,0-1.221.946,11.657,11.657,0,0,1-1.255,3.024,1.261,1.261,0,0,0,.194,1.533l1.7,1.7-2.81,2.81-1.7-1.7a1.241,1.241,0,0,0-.215-.168V25.05a10.492,10.492,0,1,0-14.55,0v2.583a1.238,1.238,0,0,0-.215.168l-1.7,1.7-2.81-2.81,1.7-1.7a1.261,1.261,0,0,0,.194-1.533A11.657,11.657,0,0,1,38,20.434a1.26,1.26,0,0,0-1.221-.946h-2.4V15.513h2.4A1.261,1.261,0,0,0,38,14.566a11.656,11.656,0,0,1,1.255-3.024,1.261,1.261,0,0,0-.194-1.533l-1.7-1.7,2.81-2.81,1.7,1.7a1.26,1.26,0,0,0,1.532.194,11.661,11.661,0,0,1,3.024-1.255,1.26,1.26,0,0,0,.946-1.221v-2.4h3.975v2.4a1.26,1.26,0,0,0,.946,1.221,11.658,11.658,0,0,1,3.024,1.255A1.261,1.261,0,0,0,56.847,7.2l1.7-1.7,2.81,2.81-1.7,1.7a1.261,1.261,0,0,0-.194,1.533,11.658,11.658,0,0,1,1.255,3.024,1.26,1.26,0,0,0,1.221.946h2.4v3.975Z" transform="translate(99.143 999)" fill="#203b78"/>
  </g>
</svg>
