<svg xmlns="http://www.w3.org/2000/svg" width="35" height="34.999" viewBox="0 0 35 34.999">
  <g id="Group_3480" data-name="Group 3480" transform="translate(-131 -766)">
    <path id="Path_24" data-name="Path 24" d="M735.252,1358.2a15.855,15.855,0,0,0,15.837-15.837v-1.18H736.432v-14.656h-1.18a15.837,15.837,0,1,0,0,31.673Zm-1.18-29.262v14.605h14.605a13.477,13.477,0,1,1-14.605-14.605Z" transform="translate(-588.415 -557.203)" fill="#203b78"/>
    <path id="Path_25" data-name="Path 25" d="M755.891,1339.423a16.333,16.333,0,0,0-16.315-16.314h-1.216v17.529h17.53Zm-15.1-1.216v-12.615a13.905,13.905,0,0,1,12.615,12.615Z" transform="translate(-589.892 -557.109)" fill="#203b78"/>
  </g>
</svg>
