<svg xmlns="http://www.w3.org/2000/svg" width="35" height="33.201" viewBox="0 0 35 33.201">
  <g id="calendar-svgrepo-com_1_" data-name="calendar-svgrepo-com (1)" transform="translate(0 -13.155)">
    <g id="Group_23" data-name="Group 23" transform="translate(13.996 27.281)">
      <g id="Group_22" data-name="Group 22">
        <path id="Path_59" data-name="Path 59" d="M206.047,215.526h-3.6a1.658,1.658,0,0,0-1.656,1.656v3.6a1.658,1.658,0,0,0,1.656,1.656h3.6a1.658,1.658,0,0,0,1.656-1.656v-3.6A1.658,1.658,0,0,0,206.047,215.526Zm-.452,4.8h-2.7v-2.7h2.7Z" transform="translate(-200.79 -215.526)" fill="#203b78"/>
      </g>
    </g>
    <g id="Group_25" data-name="Group 25" transform="translate(4.287 27.281)">
      <g id="Group_24" data-name="Group 24">
        <path id="Path_60" data-name="Path 60" d="M72.893,215.526h-3.6a1.658,1.658,0,0,0-1.656,1.656v3.6a1.658,1.658,0,0,0,1.656,1.656h3.6a1.658,1.658,0,0,0,1.656-1.656v-3.6A1.658,1.658,0,0,0,72.893,215.526Zm-3.148,4.8v-2.7h2.7v2.7Z" transform="translate(-67.636 -215.526)" fill="#203b78"/>
      </g>
    </g>
    <g id="Group_27" data-name="Group 27" transform="translate(4.287 36.216)">
      <g id="Group_26" data-name="Group 26">
        <path id="Path_61" data-name="Path 61" d="M72.893,338.847h-3.6a1.658,1.658,0,0,0-1.656,1.656v3.6a1.658,1.658,0,0,0,1.656,1.656h3.6a1.658,1.658,0,0,0,1.656-1.656v-3.6A1.658,1.658,0,0,0,72.893,338.847Zm-3.148,4.8v-2.7h2.7v2.7Z" transform="translate(-67.636 -338.847)" fill="#203b78"/>
      </g>
    </g>
    <g id="Group_29" data-name="Group 29" transform="translate(23.73 27.281)">
      <g id="Group_28" data-name="Group 28">
        <path id="Path_62" data-name="Path 62" d="M339.448,215.526h-3.6a1.658,1.658,0,0,0-1.656,1.656v3.6a1.658,1.658,0,0,0,1.656,1.656h3.6a1.658,1.658,0,0,0,1.656-1.656v-3.6A1.658,1.658,0,0,0,339.448,215.526Zm-.453,4.8h-2.7v-2.7H339Z" transform="translate(-334.191 -215.526)" fill="#203b78"/>
      </g>
    </g>
    <g id="Group_31" data-name="Group 31" transform="translate(23.73 36.216)">
      <g id="Group_30" data-name="Group 30">
        <path id="Path_63" data-name="Path 63" d="M339.448,338.847h-3.6a1.658,1.658,0,0,0-1.656,1.656v3.6a1.658,1.658,0,0,0,1.656,1.656h3.6A1.658,1.658,0,0,0,341.1,344.1v-3.6A1.658,1.658,0,0,0,339.448,338.847Zm-.453,4.8h-2.7v-2.7H339Z" transform="translate(-334.191 -338.847)" fill="#203b78"/>
      </g>
    </g>
    <g id="Group_33" data-name="Group 33" transform="translate(14.454 36.673)">
      <g id="Group_32" data-name="Group 32">
        <path id="Path_64" data-name="Path 64" d="M212.49,349.056l1.2-1.2a1.054,1.054,0,0,0-1.491-1.491l-1.2,1.2-1.2-1.2a1.054,1.054,0,0,0-1.491,1.491l1.2,1.2-1.2,1.2a1.054,1.054,0,1,0,1.491,1.491l1.2-1.2,1.2,1.2a1.054,1.054,0,1,0,1.491-1.491Z" transform="translate(-208 -346.057)" fill="#203b78"/>
      </g>
    </g>
    <g id="Group_35" data-name="Group 35" transform="translate(9.938 16.075)">
      <g id="Group_34" data-name="Group 34">
        <path id="Path_65" data-name="Path 65" d="M147.454,59.219H144.5a1.054,1.054,0,1,0,0,2.108h2.952a1.054,1.054,0,0,0,0-2.108Z" transform="translate(-143.448 -59.219)" fill="#203b78"/>
      </g>
    </g>
    <g id="Group_37" data-name="Group 37" transform="translate(20.074 16.075)">
      <g id="Group_36" data-name="Group 36">
        <path id="Path_66" data-name="Path 66" d="M293.757,59.219h-2.882a1.054,1.054,0,1,0,0,2.108h2.882a1.054,1.054,0,0,0,0-2.108Z" transform="translate(-289.821 -59.219)" fill="#203b78"/>
      </g>
    </g>
    <g id="Group_39" data-name="Group 39" transform="translate(0 16.075)">
      <g id="Group_38" data-name="Group 38">
        <path id="Path_67" data-name="Path 67" d="M33.863,59.219H30.879a1.146,1.146,0,0,0,0,2.291h1.847v4.862H2.274V61.51H4.121a1.146,1.146,0,0,0,0-2.291H1.137A1.141,1.141,0,0,0,0,60.365v27.99A1.141,1.141,0,0,0,1.137,89.5H33.863A1.141,1.141,0,0,0,35,88.355V60.365A1.141,1.141,0,0,0,33.863,59.219Zm-1.137,27.99H2.274V68.664H32.726V87.209Z" transform="translate(0 -59.219)" fill="#203b78"/>
      </g>
    </g>
    <g id="Group_41" data-name="Group 41" transform="translate(16.399 13.155)">
      <g id="Group_40" data-name="Group 40">
        <path id="Path_68" data-name="Path 68" d="M239.743,13.155a1.054,1.054,0,0,0-1.054,1.054v5.435a1.054,1.054,0,1,0,2.108,0V14.209A1.054,1.054,0,0,0,239.743,13.155Z" transform="translate(-238.689 -13.155)" fill="#203b78"/>
      </g>
    </g>
    <g id="Group_43" data-name="Group 43" transform="translate(6.346 13.155)">
      <g id="Group_42" data-name="Group 42">
        <path id="Path_69" data-name="Path 69" d="M93.42,13.155a1.054,1.054,0,0,0-1.054,1.054v5.435a1.054,1.054,0,1,0,2.108,0V14.209A1.054,1.054,0,0,0,93.42,13.155Z" transform="translate(-92.366 -13.155)" fill="#203b78"/>
      </g>
    </g>
    <g id="Group_45" data-name="Group 45" transform="translate(26.408 13.155)">
      <g id="Group_44" data-name="Group 44">
        <path id="Path_70" data-name="Path 70" d="M385.424,13.155a1.054,1.054,0,0,0-1.054,1.054v5.435a1.054,1.054,0,1,0,2.108,0V14.209A1.054,1.054,0,0,0,385.424,13.155Z" transform="translate(-384.37 -13.155)" fill="#203b78"/>
      </g>
    </g>
  </g>
</svg>
