<svg xmlns="http://www.w3.org/2000/svg" width="35" height="35.002" viewBox="0 0 35 35.002">
  <g id="coupon-svgrepo-com" transform="translate(-0.016)">
    <g id="Group_51" data-name="Group 51" transform="translate(8.272 8.258)">
      <g id="Group_50" data-name="Group 50">
        <path id="Path_73" data-name="Path 73" d="M126.306,121.415a1.157,1.157,0,0,0-1.636,0l-3.273,3.273a1.157,1.157,0,0,0,1.636,1.636l3.273-3.273A1.157,1.157,0,0,0,126.306,121.415Z" transform="translate(-121.058 -121.076)" fill="#446bf5"/>
      </g>
    </g>
    <g id="Group_53" data-name="Group 53" transform="translate(0.016)">
      <g id="Group_52" data-name="Group 52" transform="translate(0)">
        <path id="Path_74" data-name="Path 74" d="M33.677,22.35a4.571,4.571,0,0,0,0-6.465L19.131,1.339a4.571,4.571,0,0,0-6.465,0l-.875.875a6.858,6.858,0,0,0-9.563,9.563l-.875.875a4.576,4.576,0,0,0,0,6.465L15.9,33.663a4.571,4.571,0,0,0,6.465,0l.875-.875A6.859,6.859,0,0,0,32.8,23.224Zm-1.616-1.616L30.445,22.35a1.143,1.143,0,0,0,0,1.616,4.571,4.571,0,0,1-6.465,6.465,1.143,1.143,0,0,0-1.616,0l-1.616,1.616a2.285,2.285,0,0,1-3.233,0L4.585,19.117l2.424-2.424a1.143,1.143,0,1,0-1.616-1.616L2.969,17.5a2.284,2.284,0,0,1,0-3.232l1.616-1.616a1.143,1.143,0,0,0,0-1.616A4.571,4.571,0,1,1,11.05,4.571a1.143,1.143,0,0,0,1.616,0l1.616-1.616a2.286,2.286,0,0,1,3.232,0L15.091,5.38A1.143,1.143,0,1,0,16.707,7l2.424-2.424L32.061,17.5A2.284,2.284,0,0,1,32.061,20.734Z" transform="translate(-0.016)" fill="#446bf5"/>
      </g>
    </g>
    <g id="Group_55" data-name="Group 55" transform="translate(17.973 9.838)">
      <g id="Group_54" data-name="Group 54">
        <path id="Path_75" data-name="Path 75" d="M264.065,145.905a1.157,1.157,0,0,0-1.157,1.157v16.2a1.157,1.157,0,1,0,2.314,0v-16.2A1.157,1.157,0,0,0,264.065,145.905Z" transform="translate(-262.908 -145.905)" fill="#446bf5"/>
      </g>
    </g>
    <g id="Group_57" data-name="Group 57" transform="translate(8.819 15.641)">
      <g id="Group_56" data-name="Group 56">
        <path id="Path_76" data-name="Path 76" d="M132.643,229.491a3.471,3.471,0,1,0,3.471,3.471A3.475,3.475,0,0,0,132.643,229.491Zm0,4.628a1.157,1.157,0,1,1,1.157-1.157A1.158,1.158,0,0,1,132.643,234.119Z" transform="translate(-129.172 -229.491)" fill="#446bf5"/>
      </g>
    </g>
    <g id="Group_59" data-name="Group 59" transform="translate(22.491 15.641)">
      <g id="Group_58" data-name="Group 58">
        <path id="Path_77" data-name="Path 77" d="M333.248,229.491a3.471,3.471,0,1,0,3.471,3.471A3.475,3.475,0,0,0,333.248,229.491Zm0,4.628a1.157,1.157,0,1,1,1.157-1.157A1.158,1.158,0,0,1,333.248,234.119Z" transform="translate(-329.777 -229.491)" fill="#446bf5"/>
      </g>
    </g>
  </g>
</svg>
