<svg id="delete-svgrepo-com" xmlns="http://www.w3.org/2000/svg" xmlns:xlink="http://www.w3.org/1999/xlink" width="16.034" height="19.864" viewBox="0 0 16.034 19.864">
  <defs>
    <linearGradient id="linear-gradient" x1="0.5" x2="0.5" y2="1" gradientUnits="objectBoundingBox">
      <stop offset="0" stop-color="#f8646a"/>
      <stop offset="1" stop-color="#e5070f"/>
    </linearGradient>
  </defs>
  <g id="Group_983" data-name="Group 983" transform="translate(0)">
    <g id="Group_982" data-name="Group 982" transform="translate(0)">
      <path id="Path_1112" data-name="Path 1112" d="M42.065,9.747l.285-3.422h.5a.684.684,0,0,0,.684-.684V4.393A2.137,2.137,0,0,0,41.4,2.259H39.02V1.943A1.945,1.945,0,0,0,37.077,0H35.083A1.945,1.945,0,0,0,33.14,1.943v.316H30.761a2.137,2.137,0,0,0-2.134,2.134V5.641a.684.684,0,0,0,.684.684h.5l.929,11.151a2.619,2.619,0,0,0,2.595,2.388h5.492a2.619,2.619,0,0,0,2.59-2.34,4.068,4.068,0,0,0,.649-7.776Zm-7.558-7.8a.576.576,0,0,1,.575-.575h1.994a.576.576,0,0,1,.576.575v.316H34.507ZM29.994,4.957V4.393a.768.768,0,0,1,.767-.767H41.4a.768.768,0,0,1,.767.767v.564ZM38.826,18.5H33.334A1.244,1.244,0,0,1,32.1,17.362l-.92-11.037h9.8l-.262,3.148c-.041,0-.082,0-.123,0a4.068,4.068,0,0,0-.57,8.1A1.244,1.244,0,0,1,38.826,18.5Zm1.767-2.256a2.7,2.7,0,1,1,2.7-2.7A2.7,2.7,0,0,1,40.593,16.24Z" transform="translate(-28.627)" fill="url(#linear-gradient)"/>
      <path id="Path_1113" data-name="Path 1113" d="M183.226,177.15l.645-.645a.684.684,0,0,0-.967-.967l-.645.645-.645-.645a.684.684,0,1,0-.967.967l.645.645-.645.645a.684.684,0,0,0,.967.967l.645-.645.645.645a.684.684,0,0,0,.967-.967Z" transform="translate(-170.293 -163.611)" fill="url(#linear-gradient)"/>
    </g>
  </g>
</svg>
