<svg id="edit-svgrepo-com" xmlns="http://www.w3.org/2000/svg" width="20.09" height="20" viewBox="0 0 20.09 20">
  <g id="Group_984" data-name="Group 984" transform="translate(0 0)">
    <path id="Path_1114" data-name="Path 1114" d="M112.143,7.035l.472-.464.119-.115.057-.057c.025-.025.066-.066.1-.1a1.636,1.636,0,0,0,.328-.578,1.45,1.45,0,0,0,.062-.373l0-.156a.309.309,0,0,0-.025-.119c-.045-.1-.107-.242-.18-.382a1.553,1.553,0,0,0-.23-.345.263.263,0,0,0-.062-.057.141.141,0,0,0-.045-.021.111.111,0,0,0-.074,0c-.041.025-.07.066-.074.168a6.639,6.639,0,0,0-.045.743v.086a.916.916,0,0,1-.176.345,1.368,1.368,0,0,1-.291.238q-.32.222-.64.468c-.431.324-.866.669-1.3,1.034-.874.726-1.756,1.526-2.617,2.355l-3.159,3.024-1.6,1.526-.394.382-.09.086a.041.041,0,0,1-.012,0l-.025,0-1.042.2c-.718.144-1.432.283-2.15.427l-.345.07c.139-.677.283-1.358.423-2.035l.213-1.079.053-.271.025-.135,0-.016V11.88c0-.016,0,.021,0,.012s.008-.033,0-.016,0,.012,0,.016.008-.021.008-.025h0l.012-.012.049-.049.094-.1c.521-.5,1.046-1.005,1.567-1.51,1.645-1.6,3.29-3.216,4.911-4.845q1.212-1.225,2.408-2.461l.3-.312c.049-.053.078-.082.094-.1h.012a2.745,2.745,0,0,1,.345.045.536.536,0,0,1,.111.029h0c-.008,0,.016.008-.012,0h0l.008,0,.025.008.049.021.1.041c.123.053.209.09.324.148a4.215,4.215,0,0,1,.619.386c.886.652,1.391,1.551,1.711,1.317.135-.107.176-.406.045-.837a3.284,3.284,0,0,0-1.022-1.481,5.2,5.2,0,0,0-.825-.574c-.074-.041-.156-.082-.23-.123s-.139-.066-.213-.1l-.049-.025-.041-.021L109.8,1.3c-.049-.021-.1-.037-.148-.053a2.77,2.77,0,0,0-.279-.07c-.086-.016-.172-.033-.25-.045L109,1.111l-.066-.008a1.006,1.006,0,0,0-.111-.008,1.248,1.248,0,0,0-.455.074,1.262,1.262,0,0,0-.361.205.949.949,0,0,0-.078.066l-.057.053-.082.078-.164.156-.328.312c-.87.833-1.735,1.678-2.585,2.531C103.351,5.948,102,7.33,100.652,8.725l-2.018,2.088-.131.135a1.511,1.511,0,0,0-.189.246,1.377,1.377,0,0,0-.127.283,2.379,2.379,0,0,0-.053.234l-.139.714-.283,1.424c-.115.418-.234.837-.349,1.259l-.086.316-.041.16-.021.078a1.42,1.42,0,0,0-.029.168,1.063,1.063,0,0,0,.246.788,1.012,1.012,0,0,0,.365.267,1.141,1.141,0,0,0,.414.09c.041,0,.082,0,.123,0l.066-.008.021,0,.057-.008.041-.008.16-.029L99,16.861l.644-.111,1.292-.234,1.292-.246.324-.062a1.651,1.651,0,0,0,.595-.25c.045-.033.09-.066.127-.1l.066-.057.037-.037.119-.115.234-.23c.624-.619,1.251-1.235,1.875-1.854q1.865-1.871,3.729-3.746L111.2,7.954Zm-3.335-4.558h0c-.012,0-.025,0-.029,0ZM98.157,15.544c-.021,0,0,0,.016,0h.008Z" transform="translate(-93.193 -1.094)" fill="#22215b"/>
    <path id="Path_1115" data-name="Path 1115" d="M16.447,90.759c-.2-.316-.369.094-.5.71a28.042,28.042,0,0,0-.468,3.315c-.053.591-.094,1.2-.123,1.809-.008.152-.012.308-.021.464l-.008.234v.021h0v.012l0,.057c0,.053-.008.041-.012.053a.538.538,0,0,1-.267.332.5.5,0,0,1-.263.053l-.566-.012-1.128-.025-2.26-.049c-1.506-.029-3.015-.053-4.521-.082s-3.019-.037-4.529-.037H1.748l-.07,0c0-.008.021,0,0,0a.472.472,0,0,1-.07-.025.332.332,0,0,1-.111-.1.283.283,0,0,1-.045-.144l-.008-.566c-.008-.755-.021-1.514-.037-2.273.016-.751.029-1.5.045-2.248.033-2.379.057-4.755.049-7.13l0-.849a.245.245,0,0,1,.082-.189.251.251,0,0,1,.09-.053l.053-.012h.168L2.781,84c1.186-.021,2.371-.049,3.553-.094C7.68,83.859,8.8,83.67,8.7,83.3c-.09-.34-1.046-.591-2.425-.628l-3.733-.1-.468-.008-.234,0c-.045,0-.07,0-.127,0s-.127,0-.189.012a1.742,1.742,0,0,0-1.251.775,1.547,1.547,0,0,0-.168.34,1.668,1.668,0,0,0-.094.4l0,.053v.029l0,.057v1.317c.008,2,.033,4,.062,6.006l.045,3,.025,1.5.012.751,0,.373v.094c0,.033,0,.053,0,.107a2.154,2.154,0,0,0,.033.279,1.625,1.625,0,0,0,.886,1.19,1.7,1.7,0,0,0,.533.156l.082.008.021,0H1.76l.041,0,.168.008.336.016.677.029q1.354.055,2.708.086,2.714.062,5.444.057c.911,0,1.822,0,2.728,0l.681,0h.267l.148-.008a2.028,2.028,0,0,0,.583-.148,1.892,1.892,0,0,0,.878-.792,1.933,1.933,0,0,0,.209-.562,1.363,1.363,0,0,0,.025-.181.436.436,0,0,0,0-.062v-.041l0-.082v-.127c0-1.821,0-3.639.021-5.452A2.331,2.331,0,0,0,16.447,90.759Z" transform="translate(0 -79.218)" fill="#22215b"/>
  </g>
</svg>
