<svg id="export-svgrepo-com" xmlns="http://www.w3.org/2000/svg" width="25.992" height="29.085" viewBox="0 0 25.992 29.085">
  <g id="Group_998" data-name="Group 998">
    <path id="Path_1116" data-name="Path 1116" d="M38.618,20.336a.729.729,0,0,1-.772-.095l-11.467-9.5a.725.725,0,0,1-.261-.558.7.7,0,0,1,.267-.558L37.846.167a.726.726,0,0,1,1.187.564V5.7C52.18,6.174,52.127,16.145,52.1,20.977v.576a.718.718,0,0,1-.54.7.653.653,0,0,1-.184.024.74.74,0,0,1-.635-.368c-3.882-6.838-7.075-7.17-11.711-7.188v4.956A.734.734,0,0,1,38.618,20.336Zm12.019-1.347a15.237,15.237,0,0,0-1.5-6.743C47.313,8.862,43.769,7.189,38.3,7.135a.726.726,0,0,1-.718-.724V2.268l-9.6,7.918,9.592,7.942V13.991a.738.738,0,0,1,.214-.516.727.727,0,0,1,.516-.214C43.4,13.267,46.9,13.569,50.637,18.989Z" transform="translate(-26.117 0)" fill="#fff"/>
    <path id="Path_1117" data-name="Path 1117" d="M26.055,253.654V240.239a.73.73,0,1,1,1.46,0v12.684H50.444v-2.469a.73.73,0,1,1,1.46,0v3.193a.73.73,0,0,1-.73.73H26.785A.728.728,0,0,1,26.055,253.654Z" transform="translate(-25.913 -225.293)" fill="#fff"/>
  </g>
</svg>
