<svg id="export-svgrepo-com" xmlns="http://www.w3.org/2000/svg" width="25.992" height="29.085" viewBox="0 0 25.992 29.085">
  <g id="Group_998" data-name="Group 998">
    <path id="Path_1116" data-name="Path 1116" d="M39.605,20.336a.729.729,0,0,0,.772-.095l11.468-9.5a.725.725,0,0,0,.261-.558.7.7,0,0,0-.267-.558L40.377.167A.726.726,0,0,0,39.19.731V5.7C26.042,6.174,26.1,16.145,26.119,20.977v.576a.718.718,0,0,0,.54.7.653.653,0,0,0,.184.024.74.74,0,0,0,.635-.368c3.882-6.838,7.075-7.17,11.711-7.188v4.956A.734.734,0,0,0,39.605,20.336Zm-12.02-1.347a15.237,15.237,0,0,1,1.5-6.743C30.91,8.862,34.453,7.189,39.92,7.135a.726.726,0,0,0,.718-.724V2.268l9.6,7.918-9.592,7.942V13.991a.738.738,0,0,0-.214-.516.727.727,0,0,0-.516-.214C34.827,13.267,31.319,13.569,27.586,18.988Z" transform="translate(-26.114 0)" fill="#446bf5"/>
    <path id="Path_1117" data-name="Path 1117" d="M51.9,253.654V240.239a.73.73,0,0,0-1.46,0v12.684H27.515v-2.469a.73.73,0,1,0-1.46,0v3.193a.73.73,0,0,0,.73.73H51.174A.728.728,0,0,0,51.9,253.654Z" transform="translate(-26.055 -225.293)" fill="#446bf5"/>
  </g>
</svg>
