<svg xmlns="http://www.w3.org/2000/svg" width="23.278" height="26" viewBox="0 0 23.278 26">
  <path id="filters-2-svgrepo-com" d="M17.611,5.722a2.722,2.722,0,0,0-5.444,0m5.444,0a2.722,2.722,0,1,1-5.444,0m5.444,0h8.167m-13.611,0H4M20.333,15.25a2.722,2.722,0,1,0,2.722-2.722A2.722,2.722,0,0,0,20.333,15.25Zm0,0H4m5.444,9.528A2.722,2.722,0,1,0,6.722,27.5,2.722,2.722,0,0,0,9.444,24.778Zm0,0H25.778" transform="translate(-3.25 -2.25)" fill="none" stroke="#446bf5" stroke-linecap="round" stroke-width="1.5"/>
</svg>
