<svg xmlns="http://www.w3.org/2000/svg" width="23.547" height="19.132" viewBox="0 0 23.547 19.132">
  <path id="Icon_awesome-list-ul" data-name="Icon awesome-list-ul" d="M2.208,3.375A2.208,2.208,0,1,0,4.415,5.583,2.208,2.208,0,0,0,2.208,3.375Zm0,7.359a2.208,2.208,0,1,0,2.208,2.208A2.208,2.208,0,0,0,2.208,10.734Zm0,7.359A2.208,2.208,0,1,0,4.415,20.3a2.208,2.208,0,0,0-2.208-2.208Zm20.6.736H8.094a.736.736,0,0,0-.736.736v1.472a.736.736,0,0,0,.736.736H22.812a.736.736,0,0,0,.736-.736V19.564A.736.736,0,0,0,22.812,18.828Zm0-14.717H8.094a.736.736,0,0,0-.736.736V6.318a.736.736,0,0,0,.736.736H22.812a.736.736,0,0,0,.736-.736V4.847A.736.736,0,0,0,22.812,4.111Zm0,7.359H8.094a.736.736,0,0,0-.736.736v1.472a.736.736,0,0,0,.736.736H22.812a.736.736,0,0,0,.736-.736V12.205A.736.736,0,0,0,22.812,11.469Z" transform="translate(0 -3.375)" fill="#fff"/>
</svg>
