<svg xmlns="http://www.w3.org/2000/svg" width="36.006" height="35.999" viewBox="0 0 36.006 35.999">
  <g id="Group_3155" data-name="Group 3155" transform="translate(0.5 0.5)">
    <path id="Path_1218" data-name="Path 1218" d="M197.555,19.653a9.822,9.822,0,1,0-9.822-9.822A9.834,9.834,0,0,0,197.555,19.653Zm0-18.553a8.731,8.731,0,1,1-8.731,8.731A8.741,8.741,0,0,1,197.555,1.1Z" transform="translate(-173.47 -0.008)" fill="#203b78" stroke="#203b78" stroke-width="1"/>
    <path id="Path_1219" data-name="Path 1219" d="M309.383,92.434a1.092,1.092,0,0,1-1.091-1.091.546.546,0,1,0-1.091,0,2.18,2.18,0,0,0,1.637,2.105v.078a.546.546,0,0,0,1.091,0v-.078a2.178,2.178,0,0,0-.546-4.288,1.091,1.091,0,1,1,1.091-1.091.546.546,0,1,0,1.091,0,2.18,2.18,0,0,0-1.637-2.105v-.078a.546.546,0,0,0-1.091,0v.078a2.178,2.178,0,0,0,.546,4.288,1.091,1.091,0,0,1,0,2.183Z" transform="translate(-285.992 -79.37)" fill="#203b78"/>
    <path id="Path_1221" data-name="Path 1221" d="M18.7,444.56a.819.819,0,1,0-.819.819A.82.82,0,0,0,18.7,444.56Z" transform="translate(-15.976 -413.108)" fill="#203b78" stroke="#203b78" stroke-width="1"/>
    <path id="Path_1222" data-name="Path 1222" d="M128.3,342.364a2.176,2.176,0,0,0-2.948-.817l-6.28,3.057c-.976.488-1.962.488-4.122.488a41.97,41.97,0,0,1-5.367-.538.545.545,0,1,0-.179,1.076,42,42,0,0,0,5.546.553c2.266,0,3.4,0,4.6-.6l6.31-3.073a1.092,1.092,0,1,1,1.076,1.9L119.564,349c-.015.01-1.59,1-5.157,1-3.093,0-7.873-2.633-7.941-2.671a8.438,8.438,0,0,0-3.518-.6.546.546,0,1,0,0,1.091,7.742,7.742,0,0,1,3.009.477h0c.206.115,5.074,2.8,8.45,2.8,3.94,0,5.687-1.135,5.745-1.174l7.351-4.576a2.183,2.183,0,0,0,.8-2.982Z" transform="translate(-93.596 -317.188)" fill="#203b78" stroke="#203b78" stroke-width="1"/>
    <path id="Path_1223" data-name="Path 1223" d="M102.946,308.3h4.366c.637,0,1.719.812,2.674,1.528,1.2.9,2.328,1.746,3.329,1.746h3.274a1.9,1.9,0,0,1,1.251.386.546.546,0,1,0,.772-.772,2.9,2.9,0,0,0-2.023-.706h-3.274c-.637,0-1.719-.812-2.674-1.528-1.2-.9-2.328-1.746-3.329-1.746h-4.366a.546.546,0,0,0,0,1.091Z" transform="translate(-94.949 -285.969)" fill="#203b78" stroke="#203b78" stroke-width="1"/>
    <path id="Path_1224" data-name="Path 1224" d="M3.82,273.074H.546a.546.546,0,1,0,0,1.091H3.82a.546.546,0,0,1,.546.546v12.005a.546.546,0,0,1-.546.546H.546a.546.546,0,0,0,0,1.091H3.82a1.639,1.639,0,0,0,1.637-1.637v-12A1.639,1.639,0,0,0,3.82,273.074Z" transform="translate(0 -253.354)" fill="#203b78" stroke="#203b78" stroke-width="1"/>
  </g>
</svg>
