<svg id="Group_46" data-name="Group 46" xmlns="http://www.w3.org/2000/svg" width="35" height="34.96" viewBox="0 0 35 34.96">
  <path id="Path_71" data-name="Path 71" d="M33.863,28.915l-5.684-5.677a3.677,3.677,0,0,0-4.43-.586L21.916,20.82a12.458,12.458,0,1,0-1.371,1.371l1.833,1.833a3.7,3.7,0,0,0-.482,1.819,3.659,3.659,0,0,0,1.082,2.6l5.76,5.76a3.684,3.684,0,1,0,5.126-5.291ZM12.457,23.238a10.446,10.446,0,0,1-6.8-2.508,7.172,7.172,0,0,1,4.031-4.416l1.957,3a.97.97,0,0,0,1.626,0l1.957-3a7.155,7.155,0,0,1,4.031,4.416A10.482,10.482,0,0,1,12.457,23.238Zm2.659-9.033a.968.968,0,0,0-1.1.4L12.457,17,10.9,14.6a.968.968,0,0,0-1.1-.4,9.123,9.123,0,0,0-5.636,4.961,10.414,10.414,0,0,1-1.915-3.955h1.4a.971.971,0,0,0,0-1.943H1.957c-.007-.179-.014-.358-.014-.544a10.364,10.364,0,0,1,.1-1.4H6.077a.971.971,0,0,0,0-1.943H2.494a10.509,10.509,0,1,1,18.258,9.79A9.133,9.133,0,0,0,15.116,14.205ZM32.685,32.7a1.849,1.849,0,0,1-2.57.131l-5.76-5.76a1.655,1.655,0,0,1,0-2.453,1.709,1.709,0,0,1,2.453,0l5.684,5.677A1.786,1.786,0,0,1,32.685,32.7Z" transform="translate(0 -0.288)" fill="#203b78"/>
</svg>
