<svg xmlns="http://www.w3.org/2000/svg" width="35" height="25.502" viewBox="0 0 35 25.502">
  <g id="Group_3483" data-name="Group 3483" transform="translate(-131 -1082)">
    <rect id="Rectangle_13" data-name="Rectangle 13" width="17.013" height="2.5" transform="translate(136.499 1092.372)" fill="#203b78"/>
    <rect id="Rectangle_14" data-name="Rectangle 14" width="10.102" height="2.5" transform="translate(136.755 1096.47)" fill="#203b78"/>
    <rect id="Rectangle_15" data-name="Rectangle 15" width="1.772" height="2.5" transform="translate(147.776 1096.47)" fill="#203b78"/>
    <path id="Path_23" data-name="Path 23" d="M386.464,1327.882c-3.9,0-7.271,1.645-8.752,4.17a19.041,19.041,0,0,0-2.962-.236c-7.582,0-13.75,4.419-13.75,9.851a8.218,8.218,0,0,0,2.713,5.9c-.113,1.517-.239,3.559-.239,3.559l-.14,2.258,1.9-1.234c.831-.541,2.167-1.391,2.912-1.83a18.312,18.312,0,0,0,6.608,1.2c7.581,0,13.75-4.419,13.75-9.852,0-.022,0-.044-.005-.066a11.917,11.917,0,0,0,2.332-.6c.487.294,1.239.772,1.768,1.116l1.9,1.234-.14-2.258s-.076-1.211-.147-2.2a5.8,5.8,0,0,0,1.795-4.076C396,1330.93,391.81,1327.882,386.464,1327.882Zm-11.714,21.361a15.813,15.813,0,0,1-6.23-1.228l-.483-.209-.473.233c-.33.162-1,.568-1.674.989.043-.639.09-1.307.132-1.837l.046-.574-.435-.377a6.173,6.173,0,0,1-2.357-4.573c0-4.177,5.146-7.575,11.474-7.575s11.474,3.4,11.474,7.575S381.076,1349.243,374.749,1349.243Zm17.535-11.664-.434.376.045.574c.012.149.025.312.036.484-.212-.126-.394-.229-.515-.29l-.472-.232-.483.208a9.68,9.68,0,0,1-2.357.661c-1.026-3.046-4.019-5.548-7.972-6.757a8.552,8.552,0,0,1,6.332-2.445c3.935,0,7.259,2.135,7.259,4.663A3.741,3.741,0,0,1,392.284,1337.578Z" transform="translate(-229.999 -245.882)" fill="#203b78"/>
  </g>
</svg>
