<svg xmlns="http://www.w3.org/2000/svg" width="35" height="37.529" viewBox="0 0 35 37.529">
  <path id="worker-svgrepo-com" d="M43.74,14.421H42.3A14.843,14.843,0,0,0,30.483.766,1.268,1.268,0,0,0,29.318,0H25.7a1.268,1.268,0,0,0-1.165.766A14.843,14.843,0,0,0,12.72,14.421H11.277a1.268,1.268,0,0,0-1.268,1.268v3.853a1.268,1.268,0,0,0,1.268,1.268h2.056a14.123,14.123,0,0,0,.228,2.53l-1.946,1.124a1.268,1.268,0,0,0-.464,1.732l3.433,5.947a1.268,1.268,0,0,0,1.732.464l1.949-1.125a14.056,14.056,0,0,0,4.379,2.532v2.246a1.268,1.268,0,0,0,1.268,1.268H30.78a1.268,1.268,0,0,0,1.268-1.268V34.015a14.058,14.058,0,0,0,4.379-2.532l1.949,1.125a1.268,1.268,0,0,0,1.732-.464L43.541,26.2a1.268,1.268,0,0,0-.464-1.732l-1.946-1.124a14.1,14.1,0,0,0,.228-2.53h2.382a1.268,1.268,0,0,0,1.268-1.268V15.689A1.269,1.269,0,0,0,43.74,14.421ZM28.05,2.536v8.322H26.967V2.536ZM19,6.436v5.69a1.268,1.268,0,1,0,2.536,0V4.556A12.2,12.2,0,0,1,24.431,3.4v8.73A1.268,1.268,0,0,0,25.7,13.395h3.62a1.268,1.268,0,0,0,1.268-1.268V3.4A12.2,12.2,0,0,1,33.48,4.556v7.571a1.268,1.268,0,1,0,2.536,0V6.437a12.245,12.245,0,0,1,3.737,7.985H15.264A12.245,12.245,0,0,1,19,6.436ZM38.823,20.811a11.528,11.528,0,0,1-.357,2.851,1.268,1.268,0,0,0,.595,1.412l1.65.953-2.165,3.75-1.653-.954a1.268,1.268,0,0,0-1.521.192,11.5,11.5,0,0,1-4.933,2.852,1.268,1.268,0,0,0-.927,1.221v1.905h-4.33V33.087a1.268,1.268,0,0,0-.927-1.221,11.494,11.494,0,0,1-4.933-2.852,1.268,1.268,0,0,0-1.521-.192l-1.653.954-2.165-3.75,1.65-.953a1.268,1.268,0,0,0,.595-1.412,11.523,11.523,0,0,1-.357-2.851h3.9a7.577,7.577,0,0,0,15.154,0h3.9Zm-9.956,0a1.52,1.52,0,0,1-3.04,0h3.04Zm-1.52,4.056A4.061,4.061,0,0,0,31.4,20.811h.984a5.041,5.041,0,0,1-10.082,0h.984A4.061,4.061,0,0,0,27.346,24.868Zm15.126-6.593H12.545V16.957H42.472Z" transform="translate(-10.009)" fill="#203b78"/>
</svg>
