<svg xmlns="http://www.w3.org/2000/svg" width="35" height="34.015" viewBox="0 0 35 34.015">
  <path id="auto-repair-service-svgrepo-com" d="M12.512,32.324a11.451,11.451,0,0,1-1.318-19.862.882.882,0,0,0-.973-1.471q-.273.18-.534.372L7.945,9.9A2.384,2.384,0,0,0,4.59,10.2L3.6,11.377a2.385,2.385,0,0,0,.293,3.355L5.636,16.2a13.169,13.169,0,0,0-.973,2.687H2.381A2.384,2.384,0,0,0,0,21.264v1.543a2.384,2.384,0,0,0,2.381,2.381H4.673a13.137,13.137,0,0,0,.977,2.675L3.892,29.338A2.385,2.385,0,0,0,3.6,32.693l.992,1.182a2.384,2.384,0,0,0,3.355.293l1.764-1.481a13.232,13.232,0,0,0,2.033,1.222.882.882,0,1,0,.769-1.587Zm-10.131-8.9a.618.618,0,0,1-.618-.618V21.264a.618.618,0,0,1,.618-.618H4.36a13.338,13.338,0,0,0,0,2.778ZM5.025,13.381a.621.621,0,0,1-.076-.87l.992-1.182a.618.618,0,0,1,.87-.076l1.506,1.264a13.194,13.194,0,0,0-1.785,2.129ZM6.811,32.818a.619.619,0,0,1-.87-.076l-.992-1.182a.622.622,0,0,1,.076-.87L6.55,29.41a13.269,13.269,0,0,0,1.789,2.126ZM32.619,18.883H30.338a13.134,13.134,0,0,0-.971-2.689l1.742-1.462a2.384,2.384,0,0,0,.294-3.355L30.41,10.2A2.384,2.384,0,0,0,27.055,9.9l-1.741,1.461q-.345-.253-.71-.486a.882.882,0,1,0-.949,1.486A11.452,11.452,0,0,1,22.3,32.412a.882.882,0,1,0,.74,1.6,13.127,13.127,0,0,0,2.248-1.326l1.766,1.482a2.36,2.36,0,0,0,1.525.556q.106,0,.213-.009a2.365,2.365,0,0,0,1.617-.84l.992-1.182a2.384,2.384,0,0,0-.294-3.355l-1.766-1.482a13.243,13.243,0,0,0,.979-2.669h2.3A2.384,2.384,0,0,0,35,22.807V21.264A2.384,2.384,0,0,0,32.619,18.883ZM29.975,30.689a.619.619,0,0,1,.076.87l-.992,1.182a.622.622,0,0,1-.87.076l-1.531-1.284A13.314,13.314,0,0,0,28.444,29.4Zm-1.5-16.045a13.169,13.169,0,0,0-1.787-2.128l1.505-1.263a.618.618,0,0,1,.87.076l.992,1.182a.619.619,0,0,1-.076.87Zm4.766,8.163a.618.618,0,0,1-.618.618H30.635a13.106,13.106,0,0,0,.076-1.407,13.417,13.417,0,0,0-.07-1.371h1.978a.618.618,0,0,1,.618.618v1.543Zm-9.8-.79a5.906,5.906,0,0,0-2.807-5.045.882.882,0,0,1,.931-1.5A7.7,7.7,0,0,1,23.374,27a.882.882,0,1,1-1.345-1.141A5.938,5.938,0,0,0,23.436,22.017ZM13.071,25.968a.882.882,0,0,1-1.316,1.174A7.7,7.7,0,0,1,13.881,15.22a.882.882,0,0,1,.83,1.556,5.938,5.938,0,0,0-1.64,9.192Zm5.3-1.111a.888.888,0,0,0,.015-.163V13.774l3.2-1.847a.882.882,0,0,0,.441-.764V6.96a.882.882,0,0,0-.441-.764l-1.82-1.051a.882.882,0,1,0-.882,1.527l1.379.8v3.185L17.5,12.247l-2.758-1.592V7.469l1.379-.8a.882.882,0,0,0-.882-1.527L13.419,6.2a.882.882,0,0,0-.441.764v4.2a.882.882,0,0,0,.441.764l3.2,1.847v10.92a.888.888,0,0,0,.015.163,2.934,2.934,0,0,0-2.062,2.8V37a2.044,2.044,0,0,0,2.041,2.041h1.775A2.044,2.044,0,0,0,20.429,37V27.655A2.934,2.934,0,0,0,18.367,24.857ZM18.666,37a.282.282,0,0,1-.278.278H16.612A.281.281,0,0,1,16.335,37V27.655a1.165,1.165,0,0,1,2.331,0V37Z" transform="translate(0 -5.028)" fill="#203b78"/>
</svg>
