<svg xmlns="http://www.w3.org/2000/svg" width="45.359" height="33.407" viewBox="0 0 45.359 33.407">
  <g id="Group_2989" data-name="Group 2989" transform="translate(-164.082 -267.349)">
    <path id="Path_1206" data-name="Path 1206" d="M184.145,383.046q-7.714,0-15.428,0a4.358,4.358,0,0,1-4.611-4.268q-.044-8.368-.011-16.736a4.268,4.268,0,0,1,4.453-4.235q5.436-.01,10.872,0l7.488,0a2.883,2.883,0,0,1,.45.018.644.644,0,0,1,.074,1.253,2.586,2.586,0,0,1-.625.054c-6.03,0-12.06.039-18.089-.019a3.184,3.184,0,0,0-3.324,3.312c.057,5.413.017,10.826.023,16.24a2.939,2.939,0,0,0,2.217,2.93,4.35,4.35,0,0,0,1.07.118q15.36.009,30.721,0a3.021,3.021,0,0,0,3.283-3.286c0-1.053,0-2.105,0-3.158,0-.521.272-.839.684-.824s.638.317.639.822q.005,1.579,0,3.158a4.328,4.328,0,0,1-4.6,4.612C194.341,383.055,189.243,383.046,184.145,383.046Z" transform="translate(0 -82.293)" fill="#1bc167"/>
    <path id="Path_1207" data-name="Path 1207" d="M473.658,331.877c.2-.473.366-.866.521-1.264a.711.711,0,0,1,.9-.477c.424.082.846.169,1.383.277l-2.429-4.51c-.95.331-1.852.634-2.743.967a.813.813,0,0,0-.346.378c-1.144,2.112-2.27,4.234-3.427,6.339a1.175,1.175,0,0,1-.649.533c-.342.089-.568-.189-.7-.51-.271-.682-.547-1.362-.835-2.077-.707.137-1.4.263-2.083.407-.338.071-.661.116-.909-.191-.268-.333-.113-.644.057-.96,1-1.864,2-3.734,3.007-5.594a.567.567,0,0,0-.044-.717,6.183,6.183,0,1,1,10.172-7.009,6.116,6.116,0,0,1-.219,6.867.818.818,0,0,0-.065,1.058c1,1.782,1.947,3.589,2.92,5.384.171.316.326.625.068.96s-.6.268-.947.192c-.543-.118-1.1-.184-1.632-.333-.355-.1-.478.026-.587.33-.2.551-.433,1.087-.645,1.633-.123.315-.317.622-.666.557a1.113,1.113,0,0,1-.674-.489c-.7-1.224-1.362-2.472-2.031-3.715-.252-.468-.172-.856.2-1.052s.716-.046.978.433c.389.711.772,1.426,1.159,2.138C473.458,331.562,473.538,331.682,473.658,331.877Zm-3.423-15.989a4.863,4.863,0,1,0,4.922,4.777A4.878,4.878,0,0,0,470.235,315.888ZM466.927,331.9l2.614-4.864-2.989-1.179c-.707,1.318-1.46,2.718-2.21,4.119-.063.117-.113.24-.17.363.048.017.078.038.1.034.369-.068.737-.137,1.1-.212.609-.124.818-.018,1.053.545C466.585,331.078,466.738,331.446,466.927,331.9Z" transform="translate(-271.215 -42.939)" fill="#1bc167"/>
    <path id="Path_1208" data-name="Path 1208" d="M337.419,397.461c.6.23,1.165.405,1.691.654a1.145,1.145,0,0,1,.647,1.636c-.113.31-.226.62-.346.928a1.183,1.183,0,0,1-1.77.7,10.044,10.044,0,0,0-1.814-.43.893.893,0,0,0-.479.089.405.405,0,0,0-.106.742,9.886,9.886,0,0,0,1.1.612,19.1,19.1,0,0,1,2.145,1.13,4.228,4.228,0,0,1-.64,7.374.7.7,0,0,0-.488.812,5.07,5.07,0,0,1,0,.811,1.077,1.077,0,0,1-1.066,1.064c-.39.017-.782.014-1.173.006-.713-.015-1.257-.431-1.2-1.12.082-.919-.261-1.3-1.133-1.435a3.514,3.514,0,0,1-1.175-.548,1.07,1.07,0,0,1-.494-1.358c.127-.416.268-.829.428-1.233a1.134,1.134,0,0,1,1.658-.618,9.691,9.691,0,0,0,1.728.6,2.055,2.055,0,0,0,1.016-.078.643.643,0,0,0,.212-1.184,6.487,6.487,0,0,0-1.052-.6c-.642-.324-1.324-.581-1.934-.955a3.784,3.784,0,0,1-1.947-3.827,3.872,3.872,0,0,1,2.474-3.329.476.476,0,0,0,.346-.535,11.233,11.233,0,0,1-.005-1.127,1.086,1.086,0,0,1,1.145-1.127c.346-.008.692-.006,1.037,0a1.109,1.109,0,0,1,1.188,1.14C337.436,396.66,337.419,397.066,337.419,397.461Zm-1.386,14.782c0-.529,0-1.009,0-1.488a.73.73,0,0,1,.588-.793,3.992,3.992,0,0,0,.59-.217,2.912,2.912,0,0,0,.559-5.1,15.981,15.981,0,0,0-1.859-.995,10.479,10.479,0,0,1-1.556-.889,1.7,1.7,0,0,1,.348-2.879,2.44,2.44,0,0,1,1.168-.251c.78.058,1.551.229,2.378.362l.272-.784c-.6-.151-1.123-.314-1.661-.415-.576-.107-.751-.266-.757-.854-.006-.491,0-.982,0-1.477h-.728c0,.384,0,.741,0,1.1,0,1.1,0,1.092-1.024,1.5a2.627,2.627,0,0,0-1.782,2.139,2.489,2.489,0,0,0,1.206,2.66c.506.316,1.067.543,1.6.82a14.718,14.718,0,0,1,1.576.857,1.882,1.882,0,0,1,.825,1.882,1.828,1.828,0,0,1-1.335,1.6,4.136,4.136,0,0,1-1.634.159,16.347,16.347,0,0,1-2.1-.52,2.544,2.544,0,0,1-.123.277c-.235.413-.067.639.345.746.521.136,1.04.288,1.567.389s.706.265.718.8c.01.447,0,.894,0,1.365Z" transform="translate(-151.902 -116.233)" fill="#1bc167"/>
    <path id="Path_1210" data-name="Path 1210" d="M337.419,397.461c.6.23,1.165.405,1.691.654a1.145,1.145,0,0,1,.647,1.636c-.113.31-.226.62-.346.928a1.183,1.183,0,0,1-1.77.7,10.044,10.044,0,0,0-1.814-.43.893.893,0,0,0-.479.089.405.405,0,0,0-.106.742,9.886,9.886,0,0,0,1.1.612,19.1,19.1,0,0,1,2.145,1.13,4.228,4.228,0,0,1-.64,7.374.7.7,0,0,0-.488.812,5.07,5.07,0,0,1,0,.811,1.077,1.077,0,0,1-1.066,1.064c-.39.017-.782.014-1.173.006-.713-.015-1.257-.431-1.2-1.12.082-.919-.261-1.3-1.133-1.435a3.514,3.514,0,0,1-1.175-.548,1.07,1.07,0,0,1-.494-1.358c.127-.416.268-.829.428-1.233a1.134,1.134,0,0,1,1.658-.618,9.691,9.691,0,0,0,1.728.6,2.055,2.055,0,0,0,1.016-.078.643.643,0,0,0,.212-1.184,6.487,6.487,0,0,0-1.052-.6c-.642-.324-1.324-.581-1.934-.955a3.784,3.784,0,0,1-1.947-3.827,3.872,3.872,0,0,1,2.474-3.329.476.476,0,0,0,.346-.535,11.233,11.233,0,0,1-.005-1.127,1.086,1.086,0,0,1,1.145-1.127c.346-.008.692-.006,1.037,0a1.109,1.109,0,0,1,1.188,1.14C337.436,396.66,337.419,397.066,337.419,397.461Zm-1.386,14.782c0-.529,0-1.009,0-1.488a.73.73,0,0,1,.588-.793,3.992,3.992,0,0,0,.59-.217,2.912,2.912,0,0,0,.559-5.1,15.981,15.981,0,0,0-1.859-.995,10.479,10.479,0,0,1-1.556-.889,1.7,1.7,0,0,1,.348-2.879,2.44,2.44,0,0,1,1.168-.251c.78.058,1.551.229,2.378.362l.272-.784c-.6-.151-1.123-.314-1.661-.415-.576-.107-.751-.266-.757-.854-.006-.491,0-.982,0-1.477h-.728c0,.384,0,.741,0,1.1,0,1.1,0,1.092-1.024,1.5a2.627,2.627,0,0,0-1.782,2.139,2.489,2.489,0,0,0,1.206,2.66c.506.316,1.067.543,1.6.82a14.718,14.718,0,0,1,1.576.857,1.882,1.882,0,0,1,.825,1.882,1.828,1.828,0,0,1-1.335,1.6,4.136,4.136,0,0,1-1.634.159,16.347,16.347,0,0,1-2.1-.52,2.544,2.544,0,0,1-.123.277c-.235.413-.067.639.345.746.521.136,1.04.288,1.567.389s.706.265.718.8c.01.447,0,.894,0,1.365Z" transform="translate(-162.736 -116.233)" fill="#1bc167"/>
    <path id="Path_1209" data-name="Path 1209" d="M441.889,269.57a10.271,10.271,0,0,1,1.254.436,1.2,1.2,0,0,0,1.887-.795,2.5,2.5,0,0,1,4.827-.037,1.191,1.191,0,0,0,1.933.8,2.5,2.5,0,0,1,3.415,3.379c-.516.99-.254,1.639.8,1.966a2.5,2.5,0,0,1-.024,4.81c-1.013.308-1.248.971-.8,1.951a4.226,4.226,0,0,1,.3,1.47.589.589,0,0,1-.652.643c-.385-.006-.613-.283-.662-.709a2.787,2.787,0,0,0-.234-.938,2.5,2.5,0,0,1,1.529-3.642,1.289,1.289,0,0,0,.909-.667,1.17,1.17,0,0,0-.8-1.654,2.523,2.523,0,0,1-1.911-2,2.43,2.43,0,0,1,.292-1.694,1.192,1.192,0,0,0-1.661-1.67,2.482,2.482,0,0,1-3.665-1.527,1.2,1.2,0,0,0-1.163-1.006c-.588-.009-.978.326-1.192,1.022a2.5,2.5,0,0,1-3.681,1.5,1.183,1.183,0,0,0-1.528.123,1.158,1.158,0,0,0-.135,1.522,2.492,2.492,0,0,1-1.531,3.7c-.689.218-.979.566-.978,1.173s.306.963.984,1.167a2.518,2.518,0,0,1,1.555,3.671,2.656,2.656,0,0,0-.212,1.021.705.705,0,0,1-.579.742.638.638,0,0,1-.73-.524,2.311,2.311,0,0,1,.246-1.7c.523-1.011.261-1.646-.824-1.987a2.506,2.506,0,0,1,0-4.789c1.084-.341,1.349-.979.824-1.989A2.587,2.587,0,0,1,441.889,269.57Z" transform="translate(-248.374 0)" fill="#1bc167"/>
  </g>
</svg>
